<svg xmlns="http://www.w3.org/2000/svg" xmlns:xlink="http://www.w3.org/1999/xlink" x="0px" y="0px" viewBox="0 0 50.1314354 49.4648323"><path fill="#828383" d="M25.0657082,49.393055L25.0657082,49.393055c-17.2310982,0-24.9929657-8.9151535-24.9929657-21.0668488 v-7.7693329c0-11.2668028,7.5125933-20.485096,24.9929657-20.485096l0,0c17.2622566,0,24.9929848,9.0287008,24.9929848,21.2119904 v7.291687C50.0586929,40.3532639,42.1410103,49.393055,25.0657082,49.393055z"/><path fill="#FFFFFF" d="M36.534111,31.7771397c0,1.292799-1.0300713,2.3385067-2.2832527,2.3385067H15.8805771 c-1.2615232,0-2.2832527-1.0488358-2.2832527-2.3385067v-9.4739361c0-0.5796757,0.4066067-0.8059158,0.891407-0.5171204 l9.1538639,5.4610386c0.8152981,0.4868832,2.0330334,0.4868832,2.8462448,0l9.1538639-5.4610405 c0.4920959-0.2919216,0.891407-0.0656834,0.891407,0.516077v9.4739342V31.7771397z"/><path fill="#FFFFFF" d="M36.534111,17.6876965c0-1.2896748-1.0217285-2.3385105-2.2832527-2.3385105H15.8805771 c-1.2531834,0-2.2832527,1.046751-2.2832527,2.3385105v0.4848003c0,0.577589,0.4013929,1.2844601,0.8934908,1.5784683 l10.019206,5.9771175c0.278368,0.1668129,0.8340645,0.1668129,1.1124325,0l10.0192051-5.9771175 c0.4931412-0.2950516,0.8924484-1.0008793,0.8924484-1.5784683C36.5341072,18.1724968,36.5341072,17.6876965,36.534111,17.6876965z"/></svg>